<?xml version="1.0" standalone="no"?><!DOCTYPE svg PUBLIC "-//W3C//DTD SVG 1.1//EN" "http://www.w3.org/Graphics/SVG/1.1/DTD/svg11.dtd"><svg class="icon" height="512" viewBox="0 0 1024 1024" version="1.1" xmlns="http://www.w3.org/2000/svg"><path d="M518.013971 247.839645c-17.243733 0-31.235398 13.991666-31.235399 31.235398v249.891374c0 17.240663 13.988596 31.232328 31.235399 31.232328h187.414437c17.240663 0 31.238468-13.991666 31.238468-31.232328 0-17.246803-13.994736-31.238468-31.238468-31.238469H549.247322V279.075043c0-17.243733-13.991666-31.235398-31.233351-31.235398z" fill="" /><path d="M525.592576 67.700915c-232.95054 0-422.143483 189.259458-422.143482 422.143482h70.36151c0-194.182584 157.599388-351.788112 351.781972-351.788111 194.185654 0 351.785042 157.604504 351.785042 351.788111 0 194.185654-157.599388 351.788112-351.785042 351.788112-59.368132 0-115.294886-14.775518-164.365488-40.778752l-45.608757 55.161321c61.869093 35.582403 133.557832 55.972802 209.977315 55.972802 232.95054 0 422.140413-189.189873 422.140413-422.146552 0-232.880955-189.189873-422.140413-422.143483-422.140413z" fill="" /><path d="M399.333988 379.201461L74.336032 697.075159l179.539073 24.320918-119.076003 219.703841 312.953642-312.956711-149.365866-30.528294 100.94711-218.413452z" fill="" /></svg>